<?xml version="1.0" encoding="utf-8"?>
<!-- Generator: Adobe Illustrator 25.4.0, SVG Export Plug-In . SVG Version: 6.00 Build 0)  -->
<svg version="1.1" id="Слой_1" xmlns="http://www.w3.org/2000/svg" xmlns:xlink="http://www.w3.org/1999/xlink" x="0px" y="0px"
	 viewBox="0 0 120 120" style="enable-background:new 0 0 120 120;" xml:space="preserve">
<style type="text/css">
	.st0{fill:#2C9D8F;}
	.st1{fill:#F9B54C;}
	.st2{fill:#1E252B;}
</style>
<path class="st0" d="M23.5,88.8C15,88.8,8.2,82,8.2,73.5v-9c0-2.5,2-4.5,4.5-4.5s4.5,2,4.5,4.5v9c0,3.5,2.8,6.3,6.3,6.3
	c2.5,0,4.5,2,4.5,4.5C27.9,86.8,25.9,88.8,23.5,88.8z"/>
<path class="st0" d="M47.2,36.7c0-8.1,6.6-14.7,14.7-14.7h7.7c5.6,0,10.2,4.6,10.2,10.2c0,5.6-4.6,10.2-10.2,10.2h-2v40.1
	c0,5.6-4.6,10.2-10.2,10.2c-5.6,0-10.2-4.6-10.2-10.2L47.2,36.7L47.2,36.7z"/>
<g>
	<rect x="61" y="46.6" class="st0" width="6.6" height="0.8"/>
	<rect x="61" y="51.4" class="st0" width="6.6" height="0.8"/>
	<rect x="61" y="56.1" class="st0" width="6.6" height="0.8"/>
	<rect x="61" y="60.9" class="st0" width="6.6" height="0.8"/>
	<rect x="61" y="65.6" class="st0" width="6.6" height="0.8"/>
	<rect x="61" y="70.4" class="st0" width="6.6" height="0.8"/>
	<rect x="61" y="75.2" class="st0" width="6.6" height="0.8"/>
	<rect x="61" y="79.9" class="st0" width="6.6" height="0.8"/>
</g>
<g>
	<path class="st1" d="M47.2,54.1c4.7,0,8.4-3.8,8.4-8.4s-3.8-8.4-8.4-8.4L47.2,54.1L47.2,54.1z"/>
	<path class="st1" d="M47.2,81.4c4.7,0,8.4-3.8,8.4-8.4s-3.8-8.4-8.4-8.4V81.4z"/>
</g>
<path class="st0" d="M86.2,58.2c5.6,0,10.2,4.6,10.2,10.2c0,5.6-4.6,10.2-10.2,10.2H35.8c-5.6,0-10.2-4.6-10.2-10.2
	c0-5.6,4.6-10.2,10.2-10.2L86.2,58.2L86.2,58.2z"/>
<g>
	<path class="st1" d="M66.2,58.2c0,4.7,3.8,8.4,8.4,8.4s8.4-3.8,8.4-8.4H66.2z"/>
	<path class="st1" d="M38.8,58.2c0,4.7,3.8,8.4,8.4,8.4s8.4-3.8,8.4-8.4H38.8z"/>
</g>
<path class="st0" d="M101.6,74.1c5.6,0,10.2,4.6,10.2,10.2c0,5.6-4.6,10.2-10.2,10.2H20.3c-5.6,0-10.2-4.6-10.2-10.2
	c0-5.6,4.6-10.2,10.2-10.2H101.6z"/>
<g>
	<path class="st1" d="M52.5,74.1c0,4.7,3.8,8.4,8.4,8.4s8.4-3.8,8.4-8.4H52.5z"/>
	<path class="st1" d="M25.1,74.1c0,4.7,3.8,8.4,8.4,8.4c4.7,0,8.4-3.8,8.4-8.4H25.1z"/>
	<path class="st1" d="M96.8,74.1c0,4.7-3.8,8.4-8.4,8.4s-8.4-3.8-8.4-8.4H96.8z"/>
</g>
<path class="st2" d="M63.5,30.2c-0.9,0-1.7,0.8-1.7,1.7c0,0.9,0.8,1.7,1.7,1.7s1.7-0.8,1.7-1.7C65.2,31,64.4,30.2,63.5,30.2z
	 M101.6,72.4h-4.2c0.5-1.3,0.7-2.7,0.7-4.1c0-6.6-5.4-11.9-11.9-11.9H69.3V44.1h0.3c3.1,0,6-1.2,8.1-3.2c2.7,0,5.1-1.5,6.5-3.6
	c0.4-0.6,1-0.9,1.7-0.9c0.9,0,1.7-0.8,1.7-1.7c0-0.9-0.8-1.7-1.7-1.7c-0.1,0-0.3,0-0.4,0c0,0,0,0,0-0.1c0-0.9-0.8-1.7-1.7-1.7
	S82,32,82,33c0,1.2-0.5,2.3-1.2,3.1c0.4-1.2,0.6-2.5,0.6-3.8c0-6.6-5.4-11.9-11.9-11.9h-7.7c-9,0-16.4,7.3-16.4,16.4v19.8h-9.7
	c-6.6,0-11.9,5.4-11.9,11.9c0,1.4,0.3,2.8,0.7,4.1h-4.2c-0.5,0-1,0-1.5,0.1v-8c0-3.4-2.8-6.2-6.2-6.2c-3.4,0-6.2,2.8-6.2,6.2v9
	c0,2.9,0.8,5.8,2.2,8.3c-0.2,0.8-0.3,1.6-0.3,2.5c0,6.6,5.4,11.9,11.9,11.9h81.3c6.6,0,11.9-5.4,11.9-11.9S108.2,72.4,101.6,72.4z
	 M48.9,36.7c0-7.2,5.8-12.9,12.9-12.9h7.7c4.7,0,8.5,3.8,8.5,8.5c0,2-0.7,3.9-1.9,5.3h-0.9c-0.9,0-1.7,0.8-1.7,1.7
	c0,0.1,0,0.3,0.1,0.4c-1.2,0.6-2.6,1-4,1h-2c-0.9,0-1.7,0.8-1.7,1.7v14h-17L48.9,36.7L48.9,36.7L48.9,36.7z M35.8,59.9h50.4
	c4.7,0,8.5,3.8,8.5,8.5c0,1.4-0.4,2.8-1,4.1H28.3c-0.7-1.3-1-2.6-1-4.1C27.3,63.7,31.1,59.9,35.8,59.9z M9.9,73.5v-9
	c0-1.5,1.2-2.8,2.8-2.8s2.8,1.2,2.8,2.8v8.9c-2,0.9-3.7,2.3-4.9,4.1C10.1,76.3,9.9,74.9,9.9,73.5z M101.6,92.8H20.3
	c-4.7,0-8.5-3.8-8.5-8.5c0-4.7,3.8-8.5,8.5-8.5h81.3c4.7,0,8.5,3.8,8.5,8.5C110.1,89,106.3,92.8,101.6,92.8z"/>
</svg>
