<?xml version="1.0" encoding="utf-8"?>
<!-- Generator: Adobe Illustrator 25.4.0, SVG Export Plug-In . SVG Version: 6.00 Build 0)  -->
<svg version="1.1" id="Слой_1" xmlns="http://www.w3.org/2000/svg" xmlns:xlink="http://www.w3.org/1999/xlink" x="0px" y="0px"
	 viewBox="0 0 64 64" style="enable-background:new 0 0 64 64;" xml:space="preserve">
<style type="text/css">
	.st0{fill:#F4A261;}
</style>
<path class="st0" d="M5.9,16.3c1.3-3,5.4-4.2,9-4.7l17.2-6.3c2.2-0.8,4.5-1.2,6.9-1.2c11.2,0,20.3,9.2,20.3,20.3v15.2
	c0,11.2-9.2,20.3-20.3,20.3h-0.4c-2.1,0-4.2-0.3-6.1-0.9c-5.7-1.2-11.5-2.4-17.2-3.7c-3.7-0.2-7.9-0.9-9.3-3.7
	c-2.3-4.5,5.1-8.9,5-17.8C11,25.1,3.8,21.1,5.9,16.3z"/>
</svg>
